<svg xmlns="http://www.w3.org/2000/svg" viewBox="0 0 128 128" style="--d:-1.1s"><defs><filter id="cat-rim" x="-8%" y="-8%" width="116%" height="116%"><feMorphology in="SourceAlpha" operator="dilate" radius="1.6" result="d"/><feFlood flood-color="#b9b2c8" flood-opacity=".2"/><feComposite in2="d" operator="in" result="r"/><feMerge><feMergeNode in="r"/><feMergeNode in="SourceGraphic"/></feMerge></filter></defs><style>.bod{transform-origin:64px 122px;animation:bob 1.8s step-end infinite;animation-delay:var(--d)}@keyframes bob{0%{transform:none}50%{transform:scaleY(.975)}}.tail{transform-origin:88px 113px;animation:tail 1.8s step-end infinite;animation-delay:var(--d)}@keyframes tail{0%{transform:rotate(-8deg)}33%{transform:rotate(2deg)}66%{transform:rotate(11deg)}}.pl,.pr{animation:paw .9s step-end infinite}.pr{animation-delay:-.45s}@keyframes paw{0%{transform:translateY(0)}50%{transform:translateY(-3px)}}.eyes{transform-origin:64px 58px;animation:blink 4.3s step-end infinite;animation-delay:var(--d)}@keyframes blink{0%{transform:none}93%{transform:scaleY(.12)}97%{transform:none}}.earl{transform-origin:46px 40px;animation:ear 5.2s step-end infinite;animation-delay:var(--d)}@keyframes ear{0%{transform:none}70%{transform:rotate(-14deg)}74%{transform:none}}@media (prefers-reduced-motion:reduce){*{animation:none!important}}</style><g filter="url(#cat-rim)"><g class="bod"><defs><radialGradient id="myth-cleric" cx="50%" cy="55%" r="50%"><stop offset="0" stop-color="#fff1b0" stop-opacity=".75"/><stop offset=".45" stop-color="#ffd86a" stop-opacity=".35"/><stop offset="1" stop-color="#ffd86a" stop-opacity="0"/></radialGradient></defs><circle cx="64" cy="70" r="64" fill="url(#myth-cleric)"/><circle cx="64" cy="70" r="56" fill="none" stroke="#f2c14e" stroke-width="1.6" stroke-dasharray="2 7" opacity=".7"/><path d="M12 19 Q12 26 19 26 Q12 26 12 33 Q12 26 5 26 Q12 26 12 19 Z" fill="#fff1b0"/><path d="M116 12 Q116 18 122 18 Q116 18 116 24 Q116 18 110 18 Q116 18 116 12 Z" fill="#f2c14e"/><path d="M8 87 Q8 92 13 92 Q8 92 8 97 Q8 92 3 92 Q8 92 8 87 Z" fill="#fff"/><path d="M122 53 Q122 58 127 58 Q122 58 122 63 Q122 58 117 58 Q122 58 122 53 Z" fill="#fff1b0"/><path d="M20 56.5 Q20 60 23.5 60 Q20 60 20 63.5 Q20 60 16.5 60 Q20 60 20 56.5 Z" fill="#f2c14e"/><path d="M112 96 Q112 100 116 100 Q112 100 112 104 Q112 100 108 100 Q112 100 112 96 Z" fill="#fff"/><g transform="translate(-4 -8) scale(1.07)"><path d="M42 78 C22 56 4 62 2 80 C8 80 10 86 6 92 C12 92 16 98 12 104 C22 102 28 108 30 112 C36 104 40 92 42 78 Z" fill="#ffffff" stroke="#2b2530" stroke-width="3.5" stroke-linejoin="round" stroke-linecap="round"/><path d="M14 78 C22 80 30 84 36 90 M16 92 C24 94 30 98 34 104" fill="none" stroke="#d8dbe6" stroke-width="2.5" stroke-linecap="round"/></g><g transform="translate(128 0) scale(-1 1)"><g transform="translate(-4 -8) scale(1.07)"><path d="M42 78 C22 56 4 62 2 80 C8 80 10 86 6 92 C12 92 16 98 12 104 C22 102 28 108 30 112 C36 104 40 92 42 78 Z" fill="#ffffff" stroke="#2b2530" stroke-width="3.5" stroke-linejoin="round" stroke-linecap="round"/><path d="M14 78 C22 80 30 84 36 90 M16 92 C24 94 30 98 34 104" fill="none" stroke="#d8dbe6" stroke-width="2.5" stroke-linecap="round"/></g></g><g class="tail"><path d="M86 113 C108 116 118 98 110 84 C107 79 101 80 102 86" fill="none" stroke="#2b2530" stroke-width="15" stroke-linecap="round"/><path d="M86 113 C108 116 118 98 110 84 C107 79 101 80 102 86" fill="none" stroke="#f6c9dc" stroke-width="8" stroke-linecap="round"/></g><path d="M42 74 C31 90 30 110 38 118 L90 118 C98 110 97 90 86 74 Z" fill="#f6c9dc" stroke="#2b2530" stroke-width="3.5" stroke-linejoin="round" stroke-linecap="round"/><path d="M52 78 C49 92 55 104 64 106 C73 104 79 92 76 78 Z" fill="#fff0f6"/><path d="M42 100 C44 108 46 113 50 116" fill="none" stroke="#2b2530" stroke-width="2.5" stroke-linecap="round"/><path d="M86 100 C84 108 82 113 78 116" fill="none" stroke="#2b2530" stroke-width="2.5" stroke-linecap="round"/><g class="pl"><ellipse cx="54" cy="117" rx="9" ry="6" fill="#fff0f6" stroke="#2b2530" stroke-width="3.5" stroke-linejoin="round" stroke-linecap="round"/><path d="M51 115 v4 M57 115 v4" stroke="#2b2530" stroke-width="1.8" stroke-linecap="round"/></g><g class="pr"><ellipse cx="74" cy="117" rx="9" ry="6" fill="#fff0f6" stroke="#2b2530" stroke-width="3.5" stroke-linejoin="round" stroke-linecap="round"/><path d="M71 115 v4 M77 115 v4" stroke="#2b2530" stroke-width="1.8" stroke-linecap="round"/></g><g class="earl"><path d="M33 48 L35 14 L60 31 Z" fill="#f6c9dc" stroke="#2b2530" stroke-width="3.5" stroke-linejoin="round" stroke-linecap="round"/><path d="M39 40 L40 23 L53 32 Z" fill="#f2a3b3"/></g><path d="M95 48 L93 14 L68 31 Z" fill="#f6c9dc" stroke="#2b2530" stroke-width="3.5" stroke-linejoin="round" stroke-linecap="round"/><path d="M89 40 L88 23 L75 32 Z" fill="#f2a3b3"/><path d="M29 60 C27 38 43 26 64 26 C85 26 101 38 99 60 C99 66 96 71 92 74 L96 78 L86 78 C80 82 72 83 64 83 C56 83 48 82 42 78 L32 78 L36 74 C32 71 29 66 29 60 Z" fill="#f6c9dc" stroke="#2b2530" stroke-width="3.5" stroke-linejoin="round" stroke-linecap="round"/><path d="M58 30 l1.5 9 M64 29 v10 M70 30 l-1.5 9" stroke="#e0a6c0" stroke-width="3" stroke-linecap="round"/><g class="eyes"><g stroke="#2b2530" stroke-width="3.5" stroke-linejoin="round" stroke-linecap="round"><ellipse cx="50" cy="57" rx="9" ry="9.5" fill="#b388ff"/><ellipse cx="78" cy="57" rx="9" ry="9.5" fill="#b388ff"/></g><ellipse cx="50" cy="58" rx="3" ry="6.5" fill="#2b2530"/><ellipse cx="78" cy="58" rx="3" ry="6.5" fill="#2b2530"/><circle cx="53" cy="53.5" r="2.4" fill="#fff"/><circle cx="81" cy="53.5" r="2.4" fill="#fff"/><circle cx="47.5" cy="61" r="1.1" fill="#fff" opacity=".8"/><circle cx="75.5" cy="61" r="1.1" fill="#fff" opacity=".8"/></g><ellipse cx="40" cy="69" rx="5.5" ry="3.2" fill="#f2a3b3" opacity=".55"/><ellipse cx="88" cy="69" rx="5.5" ry="3.2" fill="#f2a3b3" opacity=".55"/><path d="M60.5 65.5 h7 l-3.5 4.5 Z" fill="#e8798f" stroke="#2b2530" stroke-width="2" stroke-linejoin="round"/><path d="M64 70 q0 4 -4.5 4.5 M64 70 q0 4 4.5 4.5" fill="none" stroke="#2b2530" stroke-width="2" stroke-linecap="round"/><g stroke="#e9e4df" stroke-width="1.4" stroke-linecap="round" opacity=".9"><path d="M55 68 L37 65 M55 71 L38 73 M73 68 L91 65 M73 71 L90 73"/></g><g stroke="#f2c14e" stroke-width="3" stroke-linecap="round" opacity=".9"><path d="M64 -2 V4 M40 2 L44 7 M88 2 L84 7 M30 12 L36 13 M98 12 L92 13"/></g><ellipse cx="64" cy="14" rx="26" ry="7.5" fill="none" stroke="#2b2530" stroke-width="10"/><ellipse cx="64" cy="14" rx="26" ry="7.5" fill="none" stroke="#f2c14e" stroke-width="5"/><path d="M46 10 C54 8 62 7 68 7" fill="none" stroke="#fff6cf" stroke-width="1.8" stroke-linecap="round"/><circle cx="64" cy="38" r="4" fill="#f2c14e" stroke="#2b2530" stroke-width="2.5" stroke-linejoin="round" stroke-linecap="round"/><path d="M44 84 C52 81 76 81 84 84 L86 106 C78 113 50 113 42 106 Z" fill="#ffffff" stroke="#2b2530" stroke-width="3.5" stroke-linejoin="round" stroke-linecap="round"/><path d="M58 82 L58 110 M70 82 L70 110" stroke="#f2c14e" stroke-width="3"/><path d="M64 88 V102 M57 94 H71" stroke="#c28f2a" stroke-width="4" stroke-linecap="round"/><path d="M44 104 C52 110 76 110 84 104" fill="none" stroke="#f2c14e" stroke-width="3"/><path d="M106 30 L106 122" fill="none" stroke="#2b2530" stroke-width="9" stroke-linecap="round" stroke-linejoin="round"/><path d="M106 30 L106 122" fill="none" stroke="#9a6437" stroke-width="5" stroke-linecap="round" stroke-linejoin="round"/><path d="M98 34 C98 22 114 22 114 34" fill="none" stroke="#2b2530" stroke-width="8" stroke-linecap="round"/><path d="M98 34 C98 22 114 22 114 34" fill="none" stroke="#f2c14e" stroke-width="3.5" stroke-linecap="round"/><circle cx="106" cy="26" r="8" fill="#7fd8ff" stroke="#2b2530" stroke-width="3" stroke-linejoin="round" stroke-linecap="round"/><circle cx="103" cy="23" r="2.2" fill="#fff"/><ellipse cx="106" cy="98" rx="7" ry="6" fill="#fff0f6" stroke="#2b2530" stroke-width="3" stroke-linejoin="round" stroke-linecap="round"/><path d="M106 13 Q106 26 119 26 Q106 26 106 39 Q106 26 93 26 Q106 26 106 13 Z" fill="#f2c14e"/><circle cx="106" cy="26" r="5" fill="#fff"/><path d="M104 37 Q104 44 111 44 Q104 44 104 51 Q104 44 97 44 Q104 44 104 37 Z" fill="#fff"/><path d="M22 53 Q22 58 27 58 Q22 58 22 63 Q22 58 17 58 Q22 58 22 53 Z" fill="#fff"/><path d="M96 100 Q96 104 100 104 Q96 104 96 108 Q96 104 92 104 Q96 104 96 100 Z" fill="#fff"/></g></g></svg>
