<svg xmlns="http://www.w3.org/2000/svg" viewBox="0 0 128 128" style="--d:-0.25s"><defs><filter id="cat-rim" x="-8%" y="-8%" width="116%" height="116%"><feMorphology in="SourceAlpha" operator="dilate" radius="1.6" result="d"/><feFlood flood-color="#b9b2c8" flood-opacity=".2"/><feComposite in2="d" operator="in" result="r"/><feMerge><feMergeNode in="r"/><feMergeNode in="SourceGraphic"/></feMerge></filter></defs><style>.bod{transform-origin:64px 122px;animation:bob 1.8s step-end infinite;animation-delay:var(--d)}@keyframes bob{0%{transform:none}50%{transform:scaleY(.975)}}.tail{transform-origin:88px 113px;animation:tail 1.8s step-end infinite;animation-delay:var(--d)}@keyframes tail{0%{transform:rotate(-8deg)}33%{transform:rotate(2deg)}66%{transform:rotate(11deg)}}.pl,.pr{animation:paw .9s step-end infinite}.pr{animation-delay:-.45s}@keyframes paw{0%{transform:translateY(0)}50%{transform:translateY(-3px)}}.eyes{transform-origin:64px 58px;animation:blink 4.3s step-end infinite;animation-delay:var(--d)}@keyframes blink{0%{transform:none}93%{transform:scaleY(.12)}97%{transform:none}}.earl{transform-origin:46px 40px;animation:ear 5.2s step-end infinite;animation-delay:var(--d)}@keyframes ear{0%{transform:none}70%{transform:rotate(-14deg)}74%{transform:none}}@media (prefers-reduced-motion:reduce){*{animation:none!important}}</style><g filter="url(#cat-rim)"><g class="bod"><g class="tail"><path d="M86 113 C108 116 118 98 110 84 C107 79 101 80 102 86" fill="none" stroke="#2b2530" stroke-width="15" stroke-linecap="round"/><path d="M86 113 C108 116 118 98 110 84 C107 79 101 80 102 86" fill="none" stroke="#cfe3f0" stroke-width="8" stroke-linecap="round"/></g><path d="M42 74 C31 90 30 110 38 118 L90 118 C98 110 97 90 86 74 Z" fill="#cfe3f0" stroke="#2b2530" stroke-width="3.5" stroke-linejoin="round" stroke-linecap="round"/><path d="M52 78 C49 92 55 104 64 106 C73 104 79 92 76 78 Z" fill="#f4fbff"/><path d="M42 100 C44 108 46 113 50 116" fill="none" stroke="#2b2530" stroke-width="2.5" stroke-linecap="round"/><path d="M86 100 C84 108 82 113 78 116" fill="none" stroke="#2b2530" stroke-width="2.5" stroke-linecap="round"/><g class="pl"><ellipse cx="54" cy="117" rx="9" ry="6" fill="#f4fbff" stroke="#2b2530" stroke-width="3.5" stroke-linejoin="round" stroke-linecap="round"/><path d="M51 115 v4 M57 115 v4" stroke="#2b2530" stroke-width="1.8" stroke-linecap="round"/></g><g class="pr"><ellipse cx="74" cy="117" rx="9" ry="6" fill="#f4fbff" stroke="#2b2530" stroke-width="3.5" stroke-linejoin="round" stroke-linecap="round"/><path d="M71 115 v4 M77 115 v4" stroke="#2b2530" stroke-width="1.8" stroke-linecap="round"/></g><g class="earl"><path d="M33 48 L35 14 L60 31 Z" fill="#cfe3f0" stroke="#2b2530" stroke-width="3.5" stroke-linejoin="round" stroke-linecap="round"/><path d="M39 40 L40 23 L53 32 Z" fill="#f2a3b3"/></g><path d="M95 48 L93 14 L68 31 Z" fill="#cfe3f0" stroke="#2b2530" stroke-width="3.5" stroke-linejoin="round" stroke-linecap="round"/><path d="M89 40 L88 23 L75 32 Z" fill="#f2a3b3"/><path d="M29 60 C27 38 43 26 64 26 C85 26 101 38 99 60 C99 66 96 71 92 74 L96 78 L86 78 C80 82 72 83 64 83 C56 83 48 82 42 78 L32 78 L36 74 C32 71 29 66 29 60 Z" fill="#cfe3f0" stroke="#2b2530" stroke-width="3.5" stroke-linejoin="round" stroke-linecap="round"/><path d="M58 30 l1.5 9 M64 29 v10 M70 30 l-1.5 9" stroke="#a9c3d6" stroke-width="3" stroke-linecap="round"/><g class="eyes"><g stroke="#2b2530" stroke-width="3.5" stroke-linejoin="round" stroke-linecap="round"><ellipse cx="50" cy="57" rx="9" ry="9.5" fill="#6fd3ff"/><ellipse cx="78" cy="57" rx="9" ry="9.5" fill="#6fd3ff"/></g><ellipse cx="50" cy="58" rx="3" ry="6.5" fill="#2b2530"/><ellipse cx="78" cy="58" rx="3" ry="6.5" fill="#2b2530"/><circle cx="53" cy="53.5" r="2.4" fill="#fff"/><circle cx="81" cy="53.5" r="2.4" fill="#fff"/><circle cx="47.5" cy="61" r="1.1" fill="#fff" opacity=".8"/><circle cx="75.5" cy="61" r="1.1" fill="#fff" opacity=".8"/></g><ellipse cx="40" cy="69" rx="5.5" ry="3.2" fill="#f2a3b3" opacity=".55"/><ellipse cx="88" cy="69" rx="5.5" ry="3.2" fill="#f2a3b3" opacity=".55"/><path d="M60.5 65.5 h7 l-3.5 4.5 Z" fill="#e8798f" stroke="#2b2530" stroke-width="2" stroke-linejoin="round"/><path d="M64 70 q0 4 -4.5 4.5 M64 70 q0 4 4.5 4.5" fill="none" stroke="#2b2530" stroke-width="2" stroke-linecap="round"/><g stroke="#e9e4df" stroke-width="1.4" stroke-linecap="round" opacity=".9"><path d="M55 68 L37 65 M55 71 L38 73 M73 68 L91 65 M73 71 L90 73"/></g><path d="M33 50 C44 46 84 46 95 50 L96 62 C84 66 44 66 32 62 Z" fill="#8d55e0" stroke="#2b2530" stroke-width="3.5" stroke-linejoin="round" stroke-linecap="round"/><path d="M95 52 C104 50 110 54 114 50 C112 58 104 60 96 60 Z" fill="#5a3399" stroke="#2b2530" stroke-width="3" stroke-linejoin="round"/><g stroke="#2b2530" stroke-width="3"><ellipse cx="50" cy="57" rx="8.5" ry="8" fill="#6fd3ff"/><ellipse cx="78" cy="57" rx="8.5" ry="8" fill="#6fd3ff"/></g><ellipse cx="50" cy="58" rx="2.6" ry="5.5" fill="#2b2530"/><ellipse cx="78" cy="58" rx="2.6" ry="5.5" fill="#2b2530"/><circle cx="52.5" cy="54" r="2" fill="#fff"/><circle cx="80.5" cy="54" r="2" fill="#fff"/><path d="M44 84 C52 81 76 81 84 84 L86 106 C78 113 50 113 42 106 Z" fill="#2a2634" stroke="#2b2530" stroke-width="3.5" stroke-linejoin="round" stroke-linecap="round"/><path d="M48 84 L80 108 M80 84 L48 108" stroke="#5a3399" stroke-width="5" stroke-linecap="round"/><circle cx="64" cy="96" r="4" fill="#d7dce5" stroke="#2b2530" stroke-width="2" stroke-linejoin="round" stroke-linecap="round"/><rect x="74" y="100" width="10" height="8" rx="2" fill="#8a5a32" stroke="#2b2530" stroke-width="2" stroke-linejoin="round" stroke-linecap="round"/><path d="M103 94 L103 70 L106 60 L109 70 L109 94 Z" fill="#d7dce5" stroke="#2b2530" stroke-width="3" stroke-linejoin="round" stroke-linecap="round"/><path d="M106 66 V90" stroke="#fff" stroke-width="1.4" opacity=".7"/><rect x="97" y="93" width="18" height="5" rx="2" fill="#8d55e0" stroke="#2b2530" stroke-width="2.5" stroke-linejoin="round" stroke-linecap="round"/><rect x="103.5" y="98" width="5" height="9" fill="#5e3b1f" stroke="#2b2530" stroke-width="2.5" stroke-linejoin="round" stroke-linecap="round"/><ellipse cx="106" cy="101" rx="7" ry="6" fill="#f4fbff" stroke="#2b2530" stroke-width="3" stroke-linejoin="round" stroke-linecap="round"/><path d="M19 94 L19 70 L22 60 L25 70 L25 94 Z" fill="#d7dce5" stroke="#2b2530" stroke-width="3" stroke-linejoin="round" stroke-linecap="round"/><path d="M22 66 V90" stroke="#fff" stroke-width="1.4" opacity=".7"/><rect x="13" y="93" width="18" height="5" rx="2" fill="#8d55e0" stroke="#2b2530" stroke-width="2.5" stroke-linejoin="round" stroke-linecap="round"/><rect x="19.5" y="98" width="5" height="9" fill="#5e3b1f" stroke="#2b2530" stroke-width="2.5" stroke-linejoin="round" stroke-linecap="round"/><ellipse cx="22" cy="101" rx="7" ry="6" fill="#f4fbff" stroke="#2b2530" stroke-width="3" stroke-linejoin="round" stroke-linecap="round"/></g></g></svg>
