<svg xmlns="http://www.w3.org/2000/svg" viewBox="0 0 360 150" preserveAspectRatio="xMidYMax slice"><rect width="360" height="150" fill="#2b2b38"/><rect x="-20" y="0" width="38" height="16" rx="2" fill="#34343f"/><rect x="20" y="0" width="38" height="16" rx="2" fill="#34343f"/><rect x="60" y="0" width="38" height="16" rx="2" fill="#34343f"/><rect x="100" y="0" width="38" height="16" rx="2" fill="#34343f"/><rect x="140" y="0" width="38" height="16" rx="2" fill="#34343f"/><rect x="180" y="0" width="38" height="16" rx="2" fill="#34343f"/><rect x="220" y="0" width="38" height="16" rx="2" fill="#34343f"/><rect x="260" y="0" width="38" height="16" rx="2" fill="#34343f"/><rect x="300" y="0" width="38" height="16" rx="2" fill="#34343f"/><rect x="340" y="0" width="38" height="16" rx="2" fill="#34343f"/><rect x="0" y="18" width="38" height="16" rx="2" fill="#34343f"/><rect x="40" y="18" width="38" height="16" rx="2" fill="#34343f"/><rect x="80" y="18" width="38" height="16" rx="2" fill="#34343f"/><rect x="120" y="18" width="38" height="16" rx="2" fill="#34343f"/><rect x="160" y="18" width="38" height="16" rx="2" fill="#34343f"/><rect x="200" y="18" width="38" height="16" rx="2" fill="#34343f"/><rect x="240" y="18" width="38" height="16" rx="2" fill="#34343f"/><rect x="280" y="18" width="38" height="16" rx="2" fill="#34343f"/><rect x="320" y="18" width="38" height="16" rx="2" fill="#34343f"/><rect x="360" y="18" width="38" height="16" rx="2" fill="#34343f"/><rect x="-20" y="36" width="38" height="16" rx="2" fill="#34343f"/><rect x="20" y="36" width="38" height="16" rx="2" fill="#34343f"/><rect x="60" y="36" width="38" height="16" rx="2" fill="#34343f"/><rect x="100" y="36" width="38" height="16" rx="2" fill="#34343f"/><rect x="140" y="36" width="38" height="16" rx="2" fill="#34343f"/><rect x="180" y="36" width="38" height="16" rx="2" fill="#34343f"/><rect x="220" y="36" width="38" height="16" rx="2" fill="#34343f"/><rect x="260" y="36" width="38" height="16" rx="2" fill="#34343f"/><rect x="300" y="36" width="38" height="16" rx="2" fill="#34343f"/><rect x="340" y="36" width="38" height="16" rx="2" fill="#34343f"/><rect x="0" y="54" width="38" height="16" rx="2" fill="#34343f"/><rect x="40" y="54" width="38" height="16" rx="2" fill="#34343f"/><rect x="80" y="54" width="38" height="16" rx="2" fill="#34343f"/><rect x="120" y="54" width="38" height="16" rx="2" fill="#34343f"/><rect x="160" y="54" width="38" height="16" rx="2" fill="#34343f"/><rect x="200" y="54" width="38" height="16" rx="2" fill="#34343f"/><rect x="240" y="54" width="38" height="16" rx="2" fill="#34343f"/><rect x="280" y="54" width="38" height="16" rx="2" fill="#34343f"/><rect x="320" y="54" width="38" height="16" rx="2" fill="#34343f"/><rect x="360" y="54" width="38" height="16" rx="2" fill="#34343f"/><rect x="-20" y="72" width="38" height="16" rx="2" fill="#34343f"/><rect x="20" y="72" width="38" height="16" rx="2" fill="#34343f"/><rect x="60" y="72" width="38" height="16" rx="2" fill="#34343f"/><rect x="100" y="72" width="38" height="16" rx="2" fill="#34343f"/><rect x="140" y="72" width="38" height="16" rx="2" fill="#34343f"/><rect x="180" y="72" width="38" height="16" rx="2" fill="#34343f"/><rect x="220" y="72" width="38" height="16" rx="2" fill="#34343f"/><rect x="260" y="72" width="38" height="16" rx="2" fill="#34343f"/><rect x="300" y="72" width="38" height="16" rx="2" fill="#34343f"/><rect x="340" y="72" width="38" height="16" rx="2" fill="#34343f"/><rect x="0" y="90" width="38" height="16" rx="2" fill="#34343f"/><rect x="40" y="90" width="38" height="16" rx="2" fill="#34343f"/><rect x="80" y="90" width="38" height="16" rx="2" fill="#34343f"/><rect x="120" y="90" width="38" height="16" rx="2" fill="#34343f"/><rect x="160" y="90" width="38" height="16" rx="2" fill="#34343f"/><rect x="200" y="90" width="38" height="16" rx="2" fill="#34343f"/><rect x="240" y="90" width="38" height="16" rx="2" fill="#34343f"/><rect x="280" y="90" width="38" height="16" rx="2" fill="#34343f"/><rect x="320" y="90" width="38" height="16" rx="2" fill="#34343f"/><rect x="360" y="90" width="38" height="16" rx="2" fill="#34343f"/><path d="M54 8 H86 V62 L70 52 L54 62 Z" fill="#a32f35"/><path d="M70 20 L76 30 L70 40 L64 30 Z" fill="#f2c14e"/><path d="M274 8 H306 V62 L290 52 L274 62 Z" fill="#a32f35"/><path d="M290 20 L296 30 L290 40 L284 30 Z" fill="#f2c14e"/><circle cx="140" cy="44" r="22" fill="#f2a043" opacity=".13"/><path d="M136 50 H144 L142 64 H138 Z" fill="#6b4a36"/><path d="M140 32 C147 40 145 48 140 50 C135 48 133 40 140 32 Z" fill="#f2a043"/><circle cx="220" cy="44" r="22" fill="#f2a043" opacity=".13"/><path d="M216 50 H224 L222 64 H218 Z" fill="#6b4a36"/><path d="M220 32 C227 40 225 48 220 50 C215 48 213 40 220 32 Z" fill="#f2a043"/><rect x="0" y="108" width="360" height="42" fill="#3d3d4a"/><path d="M10 108 L-6 150" stroke="#2f2f3a" stroke-width="2"/><path d="M54 108 L38 150" stroke="#2f2f3a" stroke-width="2"/><path d="M98 108 L82 150" stroke="#2f2f3a" stroke-width="2"/><path d="M142 108 L126 150" stroke="#2f2f3a" stroke-width="2"/><path d="M186 108 L170 150" stroke="#2f2f3a" stroke-width="2"/><path d="M230 108 L214 150" stroke="#2f2f3a" stroke-width="2"/><path d="M274 108 L258 150" stroke="#2f2f3a" stroke-width="2"/><path d="M318 108 L302 150" stroke="#2f2f3a" stroke-width="2"/><path d="M362 108 L346 150" stroke="#2f2f3a" stroke-width="2"/><path d="M110 150 L140 110 H220 L250 150 Z" fill="#8f2a2a" opacity=".85"/></svg>
